<mxfile host="app.diagrams.net" modified="2024-06-16T13:26:13.559Z" agent="Mozilla/5.0 (X11; Linux x86_64; rv:126.0) Gecko/20100101 Firefox/126.0" version="24.5.4" etag="DEgG5nz7iSHHvyBQRkCd" type="github">
  <diagram name="Page-1" id="JOQsPnqVL4sINP1nkIYR">
    <mxGraphModel>
      <root>
        <mxCell id="0" />
        <mxCell id="1" parent="0" />
      </root>
    </mxGraphModel>
  </diagram>
</mxfile>
